<?xml version="1.0" encoding="UTF-8" standalone="no"?>
<!DOCTYPE svg PUBLIC "-//W3C//DTD SVG 1.1//EN"
 "http://www.w3.org/Graphics/SVG/1.1/DTD/svg11.dtd">
<!-- Generated by graphviz version 2.47.0 (20210316.0004)
 -->
<!-- Title: dependencies Pages: 1 -->
<svg width="616pt" height="298pt"
 viewBox="0.00 0.00 616.00 298.00" xmlns="http://www.w3.org/2000/svg" xmlns:xlink="http://www.w3.org/1999/xlink">
<g id="graph0" class="graph" transform="scale(1 1) rotate(0) translate(4 294)">
<title>dependencies</title>
<polygon fill="white" stroke="transparent" points="-4,4 -4,-294 612,-294 612,4 -4,4"/>
<text text-anchor="start" x="283.01" y="-42.4" font-family="Times-12" font-weight="bold" font-size="14.00">Legend</text>
<polygon fill="#ffffb3" stroke="transparent" points="70,-10 70,-30 90,-30 90,-10 70,-10"/>
<text text-anchor="start" x="93.63" y="-15.4" font-family="Times-12" font-size="14.00"> &#160;Declarations</text>
<polygon fill="#8dd3c7" stroke="transparent" points="183,-10 183,-30 203,-30 203,-10 183,-10"/>
<text text-anchor="start" x="206.73" y="-15.4" font-family="Times-12" font-size="14.00"> &#160;Module</text>
<polygon fill="#80b1d3" stroke="transparent" points="269,-10 269,-30 289,-30 289,-10 269,-10"/>
<text text-anchor="start" x="292.78" y="-15.4" font-family="Times-12" font-size="14.00"> &#160;Bootstrap</text>
<polygon fill="#fdb462" stroke="transparent" points="366,-10 366,-30 386,-30 386,-10 366,-10"/>
<text text-anchor="start" x="389.67" y="-15.4" font-family="Times-12" font-size="14.00"> &#160;Providers</text>
<polygon fill="#fb8072" stroke="transparent" points="462,-10 462,-30 482,-30 482,-10 462,-10"/>
<text text-anchor="start" x="485.73" y="-15.4" font-family="Times-12" font-size="14.00"> &#160;Exports</text>
<g id="clust1" class="cluster">
<title>cluster_AppModule</title>
<polygon fill="none" stroke="black" stroke-dasharray="1,5" points="67,-146 67,-274 460,-274 460,-146 67,-146"/>
</g>
<g id="clust3" class="cluster">
<title>cluster_AppModule_imports</title>
<polygon fill="none" stroke="black" points="75,-154 75,-206 452,-206 452,-154 75,-154"/>
</g>
<g id="clust7" class="cluster">
<title>cluster_LanguageModule</title>
<polygon fill="none" stroke="black" stroke-dasharray="1,5" points="8,-70 8,-138 348,-138 348,-70 8,-70"/>
</g>
<g id="clust12" class="cluster">
<title>cluster_LanguageModule_providers</title>
<polygon fill="none" stroke="black" points="16,-78 16,-130 340,-130 340,-78 16,-78"/>
</g>
<g id="clust13" class="cluster">
<title>cluster_PrismaModule</title>
<polygon fill="none" stroke="black" stroke-dasharray="1,5" points="468,-214 468,-282 600,-282 600,-214 468,-214"/>
</g>
<g id="clust16" class="cluster">
<title>cluster_PrismaModule_exports</title>
<polygon fill="none" stroke="black" points="476,-222 476,-274 592,-274 592,-222 476,-222"/>
</g>
<g id="clust19" class="cluster">
<title>cluster_TranslateModule</title>
<polygon fill="none" stroke="black" stroke-dasharray="1,5" points="356,-70 356,-138 540,-138 540,-70 356,-70"/>
</g>
<g id="clust24" class="cluster">
<title>cluster_TranslateModule_providers</title>
<polygon fill="none" stroke="black" points="364,-78 364,-130 532,-130 532,-78 364,-78"/>
</g>
<!-- LanguageModule -->
<g id="node1" class="node">
<title>LanguageModule</title>
<polygon fill="#8dd3c7" stroke="black" points="197.25,-198 194.25,-202 173.25,-202 170.25,-198 82.75,-198 82.75,-162 197.25,-162 197.25,-198"/>
<text text-anchor="middle" x="140" y="-175.8" font-family="Times,serif" font-size="14.00">LanguageModule</text>
</g>
<!-- AppModule -->
<g id="node4" class="node">
<title>AppModule</title>
<polygon fill="#8dd3c7" stroke="black" points="306.66,-266 303.66,-270 282.66,-270 279.66,-266 223.34,-266 223.34,-230 306.66,-230 306.66,-266"/>
<text text-anchor="middle" x="265" y="-243.8" font-family="Times,serif" font-size="14.00">AppModule</text>
</g>
<!-- LanguageModule&#45;&gt;AppModule -->
<g id="edge1" class="edge">
<title>LanguageModule&#45;&gt;AppModule</title>
<path fill="none" stroke="black" d="M140,-198.22C140,-218.37 140,-248 140,-248 140,-248 213.03,-248 213.03,-248"/>
<polygon fill="black" stroke="black" points="213.03,-251.5 223.03,-248 213.03,-244.5 213.03,-251.5"/>
</g>
<!-- PrismaModule -->
<g id="node2" class="node">
<title>PrismaModule</title>
<polygon fill="#8dd3c7" stroke="black" points="314.43,-198 311.43,-202 290.43,-202 287.43,-198 215.57,-198 215.57,-162 314.43,-162 314.43,-198"/>
<text text-anchor="middle" x="265" y="-175.8" font-family="Times,serif" font-size="14.00">PrismaModule</text>
</g>
<!-- PrismaModule&#45;&gt;AppModule -->
<g id="edge2" class="edge">
<title>PrismaModule&#45;&gt;AppModule</title>
<path fill="none" stroke="black" d="M265,-198.22C265,-198.22 265,-219.73 265,-219.73"/>
<polygon fill="black" stroke="black" points="261.5,-219.73 265,-229.73 268.5,-219.73 261.5,-219.73"/>
</g>
<!-- PrismaService  -->
<g id="node7" class="node">
<title>PrismaService </title>
<polygon fill="#fb8072" stroke="black" points="584.36,-266 483.64,-266 483.64,-230 584.36,-230 584.36,-266"/>
<text text-anchor="middle" x="534" y="-243.8" font-family="Times,serif" font-size="14.00">PrismaService </text>
</g>
<!-- PrismaModule&#45;&gt;PrismaService  -->
<g id="edge6" class="edge">
<title>PrismaModule&#45;&gt;PrismaService </title>
<path fill="none" stroke="black" stroke-dasharray="5,2" d="M310.52,-198.29C310.52,-220.21 310.52,-254 310.52,-254 310.52,-254 473.57,-254 473.57,-254"/>
<polygon fill="black" stroke="black" points="473.57,-257.5 483.57,-254 473.57,-250.5 473.57,-257.5"/>
</g>
<!-- TranslateModule -->
<g id="node3" class="node">
<title>TranslateModule</title>
<polygon fill="#8dd3c7" stroke="black" points="443.63,-198 440.63,-202 419.63,-202 416.63,-198 332.37,-198 332.37,-162 443.63,-162 443.63,-198"/>
<text text-anchor="middle" x="388" y="-175.8" font-family="Times,serif" font-size="14.00">TranslateModule</text>
</g>
<!-- TranslateModule&#45;&gt;AppModule -->
<g id="edge3" class="edge">
<title>TranslateModule&#45;&gt;AppModule</title>
<path fill="none" stroke="black" d="M388,-198.27C388,-216.56 388,-242 388,-242 388,-242 316.99,-242 316.99,-242"/>
<polygon fill="black" stroke="black" points="316.99,-238.5 306.99,-242 316.99,-245.5 316.99,-238.5"/>
</g>
<!-- LanguageService -->
<g id="node5" class="node">
<title>LanguageService</title>
<ellipse fill="#fdb462" stroke="black" cx="102" cy="-104" rx="78.13" ry="18"/>
<text text-anchor="middle" x="102" y="-99.8" font-family="Times,serif" font-size="14.00">LanguageService</text>
</g>
<!-- LanguageService&#45;&gt;LanguageModule -->
<g id="edge4" class="edge">
<title>LanguageService&#45;&gt;LanguageModule</title>
<path fill="none" stroke="black" d="M131.35,-120.87C131.35,-120.87 131.35,-151.85 131.35,-151.85"/>
<polygon fill="black" stroke="black" points="127.85,-151.85 131.35,-161.85 134.85,-151.85 127.85,-151.85"/>
</g>
<!-- PrismaService -->
<g id="node6" class="node">
<title>PrismaService</title>
<ellipse fill="#fdb462" stroke="black" cx="265" cy="-104" rx="66.63" ry="18"/>
<text text-anchor="middle" x="265" y="-99.8" font-family="Times,serif" font-size="14.00">PrismaService</text>
</g>
<!-- PrismaService&#45;&gt;LanguageModule -->
<g id="edge5" class="edge">
<title>PrismaService&#45;&gt;LanguageModule</title>
<path fill="none" stroke="black" d="M206.99,-113.02C206.99,-133.15 206.99,-180 206.99,-180 206.99,-180 206.03,-180 206.03,-180"/>
<polygon fill="black" stroke="black" points="207.39,-176.5 197.39,-180 207.39,-183.5 207.39,-176.5"/>
</g>
<!-- PrismaService&#45;&gt;PrismaModule -->
<g id="edge7" class="edge">
<title>PrismaService&#45;&gt;PrismaModule</title>
<path fill="none" stroke="black" d="M265,-122.01C265,-122.01 265,-151.85 265,-151.85"/>
<polygon fill="black" stroke="black" points="261.5,-151.85 265,-161.85 268.5,-151.85 261.5,-151.85"/>
</g>
<!-- PrismaService&#45;&gt;TranslateModule -->
<g id="edge8" class="edge">
<title>PrismaService&#45;&gt;TranslateModule</title>
<path fill="none" stroke="black" d="M323.01,-113.02C323.01,-133.15 323.01,-180 323.01,-180 323.01,-180 323.95,-180 323.95,-180"/>
<polygon fill="black" stroke="black" points="322.33,-183.5 332.33,-180 322.33,-176.5 322.33,-183.5"/>
</g>
<!-- TranslateService -->
<g id="node8" class="node">
<title>TranslateService</title>
<ellipse fill="#fdb462" stroke="black" cx="448" cy="-104" rx="75.84" ry="18"/>
<text text-anchor="middle" x="448" y="-99.8" font-family="Times,serif" font-size="14.00">TranslateService</text>
</g>
<!-- TranslateService&#45;&gt;TranslateModule -->
<g id="edge9" class="edge">
<title>TranslateService&#45;&gt;TranslateModule</title>
<path fill="none" stroke="black" d="M407.95,-119.38C407.95,-119.38 407.95,-151.97 407.95,-151.97"/>
<polygon fill="black" stroke="black" points="404.45,-151.97 407.95,-161.97 411.45,-151.97 404.45,-151.97"/>
</g>
</g>
</svg>
