<?xml version="1.0" encoding="UTF-8" standalone="no"?>
<!DOCTYPE svg PUBLIC "-//W3C//DTD SVG 1.1//EN"
 "http://www.w3.org/Graphics/SVG/1.1/DTD/svg11.dtd">
<!-- Generated by graphviz version 2.47.0 (20210316.0004)
 -->
<!-- Title: dependencies Pages: 1 -->
<svg width="504pt" height="287pt"
 viewBox="0.00 0.00 504.00 287.00" xmlns="http://www.w3.org/2000/svg" xmlns:xlink="http://www.w3.org/1999/xlink">
<g id="graph0" class="graph" transform="scale(1 1) rotate(0) translate(4 283)">
<title>dependencies</title>
<polygon fill="white" stroke="transparent" points="-4,4 -4,-283 500,-283 500,4 -4,4"/>
<text text-anchor="start" x="227.01" y="-42.4" font-family="Times-12" font-weight="bold" font-size="14.00">Legend</text>
<polygon fill="#ffffb3" stroke="transparent" points="14,-10 14,-30 34,-30 34,-10 14,-10"/>
<text text-anchor="start" x="37.63" y="-15.4" font-family="Times-12" font-size="14.00"> &#160;Declarations</text>
<polygon fill="#8dd3c7" stroke="transparent" points="127,-10 127,-30 147,-30 147,-10 127,-10"/>
<text text-anchor="start" x="150.73" y="-15.4" font-family="Times-12" font-size="14.00"> &#160;Module</text>
<polygon fill="#80b1d3" stroke="transparent" points="213,-10 213,-30 233,-30 233,-10 213,-10"/>
<text text-anchor="start" x="236.78" y="-15.4" font-family="Times-12" font-size="14.00"> &#160;Bootstrap</text>
<polygon fill="#fdb462" stroke="transparent" points="310,-10 310,-30 330,-30 330,-10 310,-10"/>
<text text-anchor="start" x="333.67" y="-15.4" font-family="Times-12" font-size="14.00"> &#160;Providers</text>
<polygon fill="#fb8072" stroke="transparent" points="406,-10 406,-30 426,-30 426,-10 406,-10"/>
<text text-anchor="start" x="429.73" y="-15.4" font-family="Times-12" font-size="14.00"> &#160;Exports</text>
<g id="clust1" class="cluster">
<title>cluster_AppModule</title>
<polygon fill="none" stroke="black" stroke-dasharray="1,5" points="112,-146 112,-271 376,-271 376,-146 112,-146"/>
</g>
<g id="clust3" class="cluster">
<title>cluster_AppModule_imports</title>
<polygon fill="none" stroke="black" points="120,-154 120,-206 368,-206 368,-154 120,-154"/>
</g>
<g id="clust7" class="cluster">
<title>cluster_BookClientModule</title>
<polygon fill="none" stroke="black" stroke-dasharray="1,5" points="72,-70 72,-138 424,-138 424,-70 72,-70"/>
</g>
<g id="clust10" class="cluster">
<title>cluster_BookClientModule_exports</title>
<polygon fill="none" stroke="black" points="274,-78 274,-130 416,-130 416,-78 274,-78"/>
</g>
<g id="clust12" class="cluster">
<title>cluster_BookClientModule_providers</title>
<polygon fill="none" stroke="black" points="80,-78 80,-130 266,-130 266,-78 80,-78"/>
</g>
<!-- BookClientModule -->
<g id="node1" class="node">
<title>BookClientModule</title>
<polygon fill="#8dd3c7" stroke="black" points="360.11,-198 357.11,-202 336.11,-202 333.11,-198 235.89,-198 235.89,-162 360.11,-162 360.11,-198"/>
<text text-anchor="middle" x="298" y="-175.8" font-family="Times,serif" font-size="14.00">BookClientModule</text>
</g>
<!-- AppModule -->
<g id="node3" class="node">
<title>AppModule</title>
<polygon fill="#8dd3c7" stroke="black" points="276.66,-263 273.66,-267 252.66,-267 249.66,-263 193.34,-263 193.34,-227 276.66,-227 276.66,-263"/>
<text text-anchor="middle" x="235" y="-240.8" font-family="Times,serif" font-size="14.00">AppModule</text>
</g>
<!-- BookClientModule&#45;&gt;AppModule -->
<g id="edge1" class="edge">
<title>BookClientModule&#45;&gt;AppModule</title>
<path fill="none" stroke="black" d="M256.39,-198.11C256.39,-198.11 256.39,-216.99 256.39,-216.99"/>
<polygon fill="black" stroke="black" points="252.89,-216.99 256.39,-226.99 259.89,-216.99 252.89,-216.99"/>
</g>
<!-- BookClientService  -->
<g id="node4" class="node">
<title>BookClientService </title>
<polygon fill="#fb8072" stroke="black" points="408.04,-122 281.96,-122 281.96,-86 408.04,-86 408.04,-122"/>
<text text-anchor="middle" x="345" y="-99.8" font-family="Times,serif" font-size="14.00">BookClientService </text>
</g>
<!-- BookClientModule&#45;&gt;BookClientService  -->
<g id="edge3" class="edge">
<title>BookClientModule&#45;&gt;BookClientService </title>
<path fill="none" stroke="black" stroke-dasharray="5,2" d="M321.02,-161.99C321.02,-161.99 321.02,-132.15 321.02,-132.15"/>
<polygon fill="black" stroke="black" points="324.52,-132.15 321.02,-122.15 317.52,-132.15 324.52,-132.15"/>
</g>
<!-- BookModule -->
<g id="node2" class="node">
<title>BookModule</title>
<polygon fill="#8dd3c7" stroke="black" points="217.89,-198 214.89,-202 193.89,-202 190.89,-198 128.11,-198 128.11,-162 217.89,-162 217.89,-198"/>
<text text-anchor="middle" x="173" y="-175.8" font-family="Times,serif" font-size="14.00">BookModule</text>
</g>
<!-- BookModule&#45;&gt;AppModule -->
<g id="edge2" class="edge">
<title>BookModule&#45;&gt;AppModule</title>
<path fill="none" stroke="black" d="M205.56,-198.11C205.56,-198.11 205.56,-216.99 205.56,-216.99"/>
<polygon fill="black" stroke="black" points="202.06,-216.99 205.56,-226.99 209.06,-216.99 202.06,-216.99"/>
</g>
<!-- BookClientService -->
<g id="node5" class="node">
<title>BookClientService</title>
<ellipse fill="#fdb462" stroke="black" cx="173" cy="-104" rx="84.55" ry="18"/>
<text text-anchor="middle" x="173" y="-99.8" font-family="Times,serif" font-size="14.00">BookClientService</text>
</g>
<!-- BookClientService&#45;&gt;BookClientModule -->
<g id="edge4" class="edge">
<title>BookClientService&#45;&gt;BookClientModule</title>
<path fill="none" stroke="black" d="M246.73,-113.02C246.73,-113.02 246.73,-151.74 246.73,-151.74"/>
<polygon fill="black" stroke="black" points="243.23,-151.74 246.73,-161.74 250.23,-151.74 243.23,-151.74"/>
</g>
<!-- BookClientService&#45;&gt;BookModule -->
<g id="edge5" class="edge">
<title>BookClientService&#45;&gt;BookModule</title>
<path fill="none" stroke="black" d="M173,-122.01C173,-122.01 173,-151.85 173,-151.85"/>
<polygon fill="black" stroke="black" points="169.5,-151.85 173,-161.85 176.5,-151.85 169.5,-151.85"/>
</g>
</g>
</svg>
