<?xml version="1.0" encoding="UTF-8" standalone="no"?>
<!DOCTYPE svg PUBLIC "-//W3C//DTD SVG 1.1//EN"
 "http://www.w3.org/Graphics/SVG/1.1/DTD/svg11.dtd">
<!-- Generated by graphviz version 2.47.0 (20210316.0004)
 -->
<!-- Title: dependencies Pages: 1 -->
<svg width="504pt" height="211pt"
 viewBox="0.00 0.00 504.00 211.00" xmlns="http://www.w3.org/2000/svg" xmlns:xlink="http://www.w3.org/1999/xlink">
<g id="graph0" class="graph" transform="scale(1 1) rotate(0) translate(4 207)">
<title>dependencies</title>
<polygon fill="white" stroke="transparent" points="-4,4 -4,-207 500,-207 500,4 -4,4"/>
<text text-anchor="start" x="227.01" y="-42.4" font-family="Times-12" font-weight="bold" font-size="14.00">Legend</text>
<polygon fill="#ffffb3" stroke="transparent" points="14,-10 14,-30 34,-30 34,-10 14,-10"/>
<text text-anchor="start" x="37.63" y="-15.4" font-family="Times-12" font-size="14.00"> &#160;Declarations</text>
<polygon fill="#8dd3c7" stroke="transparent" points="127,-10 127,-30 147,-30 147,-10 127,-10"/>
<text text-anchor="start" x="150.73" y="-15.4" font-family="Times-12" font-size="14.00"> &#160;Module</text>
<polygon fill="#80b1d3" stroke="transparent" points="213,-10 213,-30 233,-30 233,-10 213,-10"/>
<text text-anchor="start" x="236.78" y="-15.4" font-family="Times-12" font-size="14.00"> &#160;Bootstrap</text>
<polygon fill="#fdb462" stroke="transparent" points="310,-10 310,-30 330,-30 330,-10 310,-10"/>
<text text-anchor="start" x="333.67" y="-15.4" font-family="Times-12" font-size="14.00"> &#160;Providers</text>
<polygon fill="#fb8072" stroke="transparent" points="406,-10 406,-30 426,-30 426,-10 406,-10"/>
<text text-anchor="start" x="429.73" y="-15.4" font-family="Times-12" font-size="14.00"> &#160;Exports</text>
<g id="clust1" class="cluster">
<title>cluster_AppModule</title>
<polygon fill="none" stroke="black" stroke-dasharray="1,5" points="116,-70 116,-195 380,-195 380,-70 116,-70"/>
</g>
<g id="clust3" class="cluster">
<title>cluster_AppModule_imports</title>
<polygon fill="none" stroke="black" points="124,-78 124,-130 372,-130 372,-78 124,-78"/>
</g>
<!-- BookClientModule -->
<g id="node1" class="node">
<title>BookClientModule</title>
<polygon fill="#8dd3c7" stroke="black" points="364.11,-122 361.11,-126 340.11,-126 337.11,-122 239.89,-122 239.89,-86 364.11,-86 364.11,-122"/>
<text text-anchor="middle" x="302" y="-99.8" font-family="Times,serif" font-size="14.00">BookClientModule</text>
</g>
<!-- AppModule -->
<g id="node3" class="node">
<title>AppModule</title>
<polygon fill="#8dd3c7" stroke="black" points="280.66,-187 277.66,-191 256.66,-191 253.66,-187 197.34,-187 197.34,-151 280.66,-151 280.66,-187"/>
<text text-anchor="middle" x="239" y="-164.8" font-family="Times,serif" font-size="14.00">AppModule</text>
</g>
<!-- BookClientModule&#45;&gt;AppModule -->
<g id="edge1" class="edge">
<title>BookClientModule&#45;&gt;AppModule</title>
<path fill="none" stroke="black" d="M260.39,-122.11C260.39,-122.11 260.39,-140.99 260.39,-140.99"/>
<polygon fill="black" stroke="black" points="256.89,-140.99 260.39,-150.99 263.89,-140.99 256.89,-140.99"/>
</g>
<!-- BookModule -->
<g id="node2" class="node">
<title>BookModule</title>
<polygon fill="#8dd3c7" stroke="black" points="221.89,-122 218.89,-126 197.89,-126 194.89,-122 132.11,-122 132.11,-86 221.89,-86 221.89,-122"/>
<text text-anchor="middle" x="177" y="-99.8" font-family="Times,serif" font-size="14.00">BookModule</text>
</g>
<!-- BookModule&#45;&gt;AppModule -->
<g id="edge2" class="edge">
<title>BookModule&#45;&gt;AppModule</title>
<path fill="none" stroke="black" d="M209.56,-122.11C209.56,-122.11 209.56,-140.99 209.56,-140.99"/>
<polygon fill="black" stroke="black" points="206.06,-140.99 209.56,-150.99 213.06,-140.99 206.06,-140.99"/>
</g>
</g>
</svg>
