<?xml version="1.0" encoding="UTF-8" standalone="no"?>
<!DOCTYPE svg PUBLIC "-//W3C//DTD SVG 1.1//EN"
 "http://www.w3.org/Graphics/SVG/1.1/DTD/svg11.dtd">
<!-- Generated by graphviz version 2.47.0 (20210316.0004)
 -->
<!-- Title: dependencies Pages: 1 -->
<svg width="658pt" height="298pt"
 viewBox="0.00 0.00 658.00 298.00" xmlns="http://www.w3.org/2000/svg" xmlns:xlink="http://www.w3.org/1999/xlink">
<g id="graph0" class="graph" transform="scale(1 1) rotate(0) translate(4 294)">
<title>dependencies</title>
<polygon fill="white" stroke="transparent" points="-4,4 -4,-294 654,-294 654,4 -4,4"/>
<text text-anchor="start" x="304.01" y="-42.4" font-family="Times-12" font-weight="bold" font-size="14.00">Legend</text>
<polygon fill="#ffffb3" stroke="transparent" points="91,-10 91,-30 111,-30 111,-10 91,-10"/>
<text text-anchor="start" x="114.63" y="-15.4" font-family="Times-12" font-size="14.00"> &#160;Declarations</text>
<polygon fill="#8dd3c7" stroke="transparent" points="204,-10 204,-30 224,-30 224,-10 204,-10"/>
<text text-anchor="start" x="227.73" y="-15.4" font-family="Times-12" font-size="14.00"> &#160;Module</text>
<polygon fill="#80b1d3" stroke="transparent" points="290,-10 290,-30 310,-30 310,-10 290,-10"/>
<text text-anchor="start" x="313.78" y="-15.4" font-family="Times-12" font-size="14.00"> &#160;Bootstrap</text>
<polygon fill="#fdb462" stroke="transparent" points="387,-10 387,-30 407,-30 407,-10 387,-10"/>
<text text-anchor="start" x="410.67" y="-15.4" font-family="Times-12" font-size="14.00"> &#160;Providers</text>
<polygon fill="#fb8072" stroke="transparent" points="483,-10 483,-30 503,-30 503,-10 483,-10"/>
<text text-anchor="start" x="506.73" y="-15.4" font-family="Times-12" font-size="14.00"> &#160;Exports</text>
<g id="clust1" class="cluster">
<title>cluster_AppModule</title>
<polygon fill="none" stroke="black" stroke-dasharray="1,5" points="8,-146 8,-274 130,-274 130,-146 8,-146"/>
</g>
<g id="clust3" class="cluster">
<title>cluster_AppModule_imports</title>
<polygon fill="none" stroke="black" points="16,-154 16,-206 122,-206 122,-154 16,-154"/>
</g>
<g id="clust7" class="cluster">
<title>cluster_BookModule</title>
<polygon fill="none" stroke="black" stroke-dasharray="1,5" points="79,-70 79,-138 539,-138 539,-70 79,-70"/>
</g>
<g id="clust9" class="cluster">
<title>cluster_BookModule_imports</title>
<polygon fill="none" stroke="black" points="87,-78 87,-130 233,-130 233,-78 87,-78"/>
</g>
<g id="clust12" class="cluster">
<title>cluster_BookModule_providers</title>
<polygon fill="none" stroke="black" points="241,-78 241,-130 531,-130 531,-78 241,-78"/>
</g>
<g id="clust13" class="cluster">
<title>cluster_LocalizationModule</title>
<polygon fill="none" stroke="black" stroke-dasharray="1,5" points="138,-146 138,-214 502,-214 502,-146 138,-146"/>
</g>
<g id="clust16" class="cluster">
<title>cluster_LocalizationModule_exports</title>
<polygon fill="none" stroke="black" points="346,-154 346,-206 494,-206 494,-154 346,-154"/>
</g>
<g id="clust18" class="cluster">
<title>cluster_LocalizationModule_providers</title>
<polygon fill="none" stroke="black" points="146,-154 146,-206 338,-206 338,-154 146,-154"/>
</g>
<g id="clust19" class="cluster">
<title>cluster_PrismaModule</title>
<polygon fill="none" stroke="black" stroke-dasharray="1,5" points="510,-154 510,-282 642,-282 642,-154 510,-154"/>
</g>
<g id="clust22" class="cluster">
<title>cluster_PrismaModule_exports</title>
<polygon fill="none" stroke="black" points="518,-222 518,-274 634,-274 634,-222 518,-222"/>
</g>
<!-- BookModule -->
<g id="node1" class="node">
<title>BookModule</title>
<polygon fill="#8dd3c7" stroke="black" points="113.89,-198 110.89,-202 89.89,-202 86.89,-198 24.11,-198 24.11,-162 113.89,-162 113.89,-198"/>
<text text-anchor="middle" x="69" y="-175.8" font-family="Times,serif" font-size="14.00">BookModule</text>
</g>
<!-- AppModule -->
<g id="node2" class="node">
<title>AppModule</title>
<polygon fill="#8dd3c7" stroke="black" points="110.66,-266 107.66,-270 86.66,-270 83.66,-266 27.34,-266 27.34,-230 110.66,-230 110.66,-266"/>
<text text-anchor="middle" x="69" y="-243.8" font-family="Times,serif" font-size="14.00">AppModule</text>
</g>
<!-- BookModule&#45;&gt;AppModule -->
<g id="edge1" class="edge">
<title>BookModule&#45;&gt;AppModule</title>
<path fill="none" stroke="black" d="M69,-198.22C69,-198.22 69,-219.73 69,-219.73"/>
<polygon fill="black" stroke="black" points="65.5,-219.73 69,-229.73 72.5,-219.73 65.5,-219.73"/>
</g>
<!-- LocalizationModule -->
<g id="node3" class="node">
<title>LocalizationModule</title>
<polygon fill="#8dd3c7" stroke="black" points="224.52,-122 221.52,-126 200.52,-126 197.52,-122 95.48,-122 95.48,-86 224.52,-86 224.52,-122"/>
<text text-anchor="middle" x="160" y="-99.8" font-family="Times,serif" font-size="14.00">LocalizationModule</text>
</g>
<!-- LocalizationModule&#45;&gt;BookModule -->
<g id="edge2" class="edge">
<title>LocalizationModule&#45;&gt;BookModule</title>
<path fill="none" stroke="black" d="M99.91,-122.01C99.91,-122.01 99.91,-151.85 99.91,-151.85"/>
<polygon fill="black" stroke="black" points="96.41,-151.85 99.91,-161.85 103.41,-151.85 96.41,-151.85"/>
</g>
<!-- LocalizationService  -->
<g id="node6" class="node">
<title>LocalizationService </title>
<polygon fill="#fb8072" stroke="black" points="485.95,-198 354.05,-198 354.05,-162 485.95,-162 485.95,-198"/>
<text text-anchor="middle" x="420" y="-175.8" font-family="Times,serif" font-size="14.00">LocalizationService </text>
</g>
<!-- LocalizationModule&#45;&gt;LocalizationService  -->
<g id="edge5" class="edge">
<title>LocalizationModule&#45;&gt;LocalizationService </title>
<path fill="none" stroke="black" stroke-dasharray="5,2" d="M201.09,-122.21C201.09,-127.55 201.09,-132 201.09,-132 201.09,-132 362.6,-132 362.6,-132 362.6,-132 362.6,-151.85 362.6,-151.85"/>
<polygon fill="black" stroke="black" points="359.1,-151.85 362.6,-161.85 366.1,-151.85 359.1,-151.85"/>
</g>
<!-- BookService -->
<g id="node4" class="node">
<title>BookService</title>
<ellipse fill="#fdb462" stroke="black" cx="310" cy="-104" rx="60.84" ry="18"/>
<text text-anchor="middle" x="310" y="-99.8" font-family="Times,serif" font-size="14.00">BookService</text>
</g>
<!-- BookService&#45;&gt;BookModule -->
<g id="edge3" class="edge">
<title>BookService&#45;&gt;BookModule</title>
<path fill="none" stroke="black" d="M289.67,-121.22C289.67,-131.28 289.67,-142 289.67,-142 289.67,-142 104.59,-142 104.59,-142 104.59,-142 104.59,-151.89 104.59,-151.89"/>
<polygon fill="black" stroke="black" points="101.09,-151.89 104.59,-161.89 108.09,-151.89 101.09,-151.89"/>
</g>
<!-- PrismaService -->
<g id="node5" class="node">
<title>PrismaService</title>
<ellipse fill="#fdb462" stroke="black" cx="456" cy="-104" rx="66.63" ry="18"/>
<text text-anchor="middle" x="456" y="-99.8" font-family="Times,serif" font-size="14.00">PrismaService</text>
</g>
<!-- PrismaService&#45;&gt;BookModule -->
<g id="edge4" class="edge">
<title>PrismaService&#45;&gt;BookModule</title>
<path fill="none" stroke="black" d="M437.46,-121.33C437.46,-135.08 437.46,-152 437.46,-152 437.46,-152 109.27,-152 109.27,-152 109.27,-152 109.27,-152.98 109.27,-152.98"/>
<polygon fill="black" stroke="black" points="105.77,-151.79 109.27,-161.79 112.77,-151.79 105.77,-151.79"/>
</g>
<!-- PrismaModule -->
<g id="node9" class="node">
<title>PrismaModule</title>
<polygon fill="#8dd3c7" stroke="black" points="620.43,-198 617.43,-202 596.43,-202 593.43,-198 521.57,-198 521.57,-162 620.43,-162 620.43,-198"/>
<text text-anchor="middle" x="571" y="-175.8" font-family="Times,serif" font-size="14.00">PrismaModule</text>
</g>
<!-- PrismaService&#45;&gt;PrismaModule -->
<g id="edge8" class="edge">
<title>PrismaService&#45;&gt;PrismaModule</title>
<path fill="none" stroke="black" d="M503.75,-116.89C503.75,-138.58 503.75,-180 503.75,-180 503.75,-180 511.77,-180 511.77,-180"/>
<polygon fill="black" stroke="black" points="511.78,-183.5 521.77,-180 511.77,-176.5 511.78,-183.5"/>
</g>
<!-- LocalizationService -->
<g id="node7" class="node">
<title>LocalizationService</title>
<ellipse fill="#fdb462" stroke="black" cx="242" cy="-180" rx="88.02" ry="18"/>
<text text-anchor="middle" x="242" y="-175.8" font-family="Times,serif" font-size="14.00">LocalizationService</text>
</g>
<!-- LocalizationService&#45;&gt;LocalizationModule -->
<g id="edge6" class="edge">
<title>LocalizationService&#45;&gt;LocalizationModule</title>
<path fill="none" stroke="black" d="M177.42,-167.45C177.42,-167.45 177.42,-132.26 177.42,-132.26"/>
<polygon fill="black" stroke="black" points="180.92,-132.26 177.42,-122.26 173.92,-132.26 180.92,-132.26"/>
</g>
<!-- PrismaService  -->
<g id="node8" class="node">
<title>PrismaService </title>
<polygon fill="#fb8072" stroke="black" points="626.36,-266 525.64,-266 525.64,-230 626.36,-230 626.36,-266"/>
<text text-anchor="middle" x="576" y="-243.8" font-family="Times,serif" font-size="14.00">PrismaService </text>
</g>
<!-- PrismaModule&#45;&gt;PrismaService  -->
<g id="edge7" class="edge">
<title>PrismaModule&#45;&gt;PrismaService </title>
<path fill="none" stroke="black" stroke-dasharray="5,2" d="M573.02,-198.22C573.02,-198.22 573.02,-219.73 573.02,-219.73"/>
<polygon fill="black" stroke="black" points="569.52,-219.73 573.02,-229.73 576.52,-219.73 569.52,-219.73"/>
</g>
</g>
</svg>
